{
	"asset":{
		"generator":"Khronos glTF Blender I/O v4.2.60",
		"version":"2.0"
	},
	"extensionsUsed":[
		"KHR_materials_specular",
		"KHR_materials_ior"
	],
	"scene":0,
	"scenes":[
		{
			"name":"Scene",
			"nodes":[
				0,
				1,
				2,
				3,
				4
			]
		}
	],
	"nodes":[
		{
			"mesh":0,
			"name":"Object003_0",
			"rotation":[
				0.70710688829422,
				0,
				0,
				0.7071066498756409
			],
			"scale":[
				0.23347122967243195,
				0.23347122967243195,
				0.23347122967243195
			]
		},
		{
			"mesh":1,
			"name":"Object002_0",
			"rotation":[
				0.70710688829422,
				0,
				0,
				0.7071066498756409
			],
			"scale":[
				0.23347122967243195,
				0.23347122967243195,
				0.23347122967243195
			]
		},
		{
			"mesh":2,
			"name":"Object001_0",
			"rotation":[
				0.70710688829422,
				0,
				0,
				0.7071066498756409
			],
			"scale":[
				0.23347122967243195,
				0.23347122967243195,
				0.23347122967243195
			]
		},
		{
			"mesh":3,
			"name":"JINYU_0",
			"rotation":[
				0.70710688829422,
				0,
				0,
				0.7071066498756409
			],
			"scale":[
				0.23347122967243195,
				0.23347122967243195,
				0.23347122967243195
			]
		},
		{
			"name":"Empty.010",
			"translation":[
				0.13191527128219604,
				1.5730093717575073,
				0.03639695420861244
			]
		}
	],
	"materials":[
		{
			"doubleSided":true,
			"extensions":{
				"KHR_materials_specular":{
					"specularTexture":{
						"index":0
					}
				},
				"KHR_materials_ior":{
					"ior":1.4500000476837158
				}
			},
			"name":"TOUFA",
			"normalTexture":{
				"index":1
			},
			"pbrMetallicRoughness":{
				"baseColorTexture":{
					"index":2
				},
				"metallicFactor":0,
				"roughnessFactor":0.5527864098548889
			}
		},
		{
			"doubleSided":true,
			"extensions":{
				"KHR_materials_specular":{
					"specularTexture":{
						"index":3
					}
				},
				"KHR_materials_ior":{
					"ior":1.4500000476837158
				}
			},
			"name":"LIAN",
			"normalTexture":{
				"index":4
			},
			"pbrMetallicRoughness":{
				"baseColorTexture":{
					"index":5
				},
				"metallicFactor":0,
				"roughnessFactor":0.5527864098548889
			}
		},
		{
			"doubleSided":true,
			"extensions":{
				"KHR_materials_specular":{
					"specularTexture":{
						"index":6
					}
				},
				"KHR_materials_ior":{
					"ior":1.4500000476837158
				}
			},
			"name":"BODY",
			"normalTexture":{
				"index":7
			},
			"pbrMetallicRoughness":{
				"baseColorTexture":{
					"index":8
				},
				"metallicFactor":0,
				"roughnessFactor":0.5527864098548889
			}
		},
		{
			"doubleSided":true,
			"extensions":{
				"KHR_materials_specular":{
					"specularTexture":{
						"index":9
					}
				},
				"KHR_materials_ior":{
					"ior":1.4500000476837158
				}
			},
			"name":"JINYU",
			"normalTexture":{
				"index":10
			},
			"pbrMetallicRoughness":{
				"baseColorTexture":{
					"index":11
				},
				"metallicFactor":0,
				"roughnessFactor":0
			}
		}
	],
	"meshes":[
		{
			"name":"Object003_0_mesh0000",
			"primitives":[
				{
					"attributes":{
						"POSITION":0,
						"NORMAL":1,
						"TEXCOORD_0":2
					},
					"indices":3,
					"material":0
				}
			]
		},
		{
			"name":"Object002_0_mesh0001",
			"primitives":[
				{
					"attributes":{
						"POSITION":4,
						"NORMAL":5,
						"TEXCOORD_0":6
					},
					"indices":7,
					"material":1
				}
			]
		},
		{
			"name":"Object001_0_mesh0002",
			"primitives":[
				{
					"attributes":{
						"POSITION":8,
						"NORMAL":9,
						"TEXCOORD_0":10
					},
					"indices":11,
					"material":2
				}
			]
		},
		{
			"name":"JINYU_0_mesh0003",
			"primitives":[
				{
					"attributes":{
						"POSITION":12,
						"NORMAL":13,
						"TEXCOORD_0":14
					},
					"indices":15,
					"material":3
				}
			]
		}
	],
	"textures":[
		{
			"sampler":0,
			"source":0
		},
		{
			"sampler":0,
			"source":1
		},
		{
			"sampler":0,
			"source":2
		},
		{
			"sampler":0,
			"source":0
		},
		{
			"sampler":0,
			"source":3
		},
		{
			"sampler":0,
			"source":4
		},
		{
			"sampler":0,
			"source":0
		},
		{
			"sampler":0,
			"source":5
		},
		{
			"sampler":0,
			"source":6
		},
		{
			"sampler":0,
			"source":7
		},
		{
			"sampler":0,
			"source":8
		},
		{
			"sampler":0,
			"source":9
		}
	],
	"images":[
		{
			"mimeType":"image/jpeg",
			"name":"Specular Texture",
			"uri":"JINYUJI1/mat0_r.jpg"
		},
		{
			"mimeType":"image/jpeg",
			"name":"Normal Texture",
			"uri":"JINYUJI1/mat3_n.jpg"
		},
		{
			"mimeType":"image/jpeg",
			"name":"Diffuse Texture.001",
			"uri":"JINYUJI1/mat3_c.jpg"
		},
		{
			"mimeType":"image/jpeg",
			"name":"Normal Texture.001",
			"uri":"JINYUJI1/mat2_n.jpg"
		},
		{
			"mimeType":"image/jpeg",
			"name":"Diffuse Texture.002",
			"uri":"JINYUJI1/mat2_c.jpg"
		},
		{
			"mimeType":"image/jpeg",
			"name":"Normal Texture.002",
			"uri":"JINYUJI1/mat0_n.jpg"
		},
		{
			"mimeType":"image/jpeg",
			"name":"Diffuse Texture.003",
			"uri":"JINYUJI1/mat0_c.jpg"
		},
		{
			"mimeType":"image/jpeg",
			"name":"Specular Texture.001",
			"uri":"JINYUJI1/mat1_r.jpg"
		},
		{
			"mimeType":"image/jpeg",
			"name":"Normal Texture.003",
			"uri":"JINYUJI1/mat1_n.jpg"
		},
		{
			"mimeType":"image/jpeg",
			"name":"Diffuse Texture",
			"uri":"JINYUJI1/mat1_c.jpg"
		}
	],
	"accessors":[
		{
			"bufferView":0,
			"componentType":5126,
			"count":9757,
			"max":[
				1.0479148626327515,
				0.7125164270401001,
				-7.047761917114258
			],
			"min":[
				-0.9838787913322449,
				-1.2408363819122314,
				-9.57160472869873
			],
			"type":"VEC3"
		},
		{
			"bufferView":1,
			"componentType":5126,
			"count":9757,
			"type":"VEC3"
		},
		{
			"bufferView":2,
			"componentType":5126,
			"count":9757,
			"type":"VEC2"
		},
		{
			"bufferView":3,
			"componentType":5123,
			"count":33315,
			"type":"SCALAR"
		},
		{
			"bufferView":4,
			"componentType":5126,
			"count":855,
			"max":[
				0.6190090775489807,
				0.5387696027755737,
				-8.022951126098633
			],
			"min":[
				-0.6190090775489807,
				-0.6734750270843506,
				-9.385464668273926
			],
			"type":"VEC3"
		},
		{
			"bufferView":5,
			"componentType":5126,
			"count":855,
			"type":"VEC3"
		},
		{
			"bufferView":6,
			"componentType":5126,
			"count":855,
			"type":"VEC2"
		},
		{
			"bufferView":7,
			"componentType":5123,
			"count":4302,
			"type":"SCALAR"
		},
		{
			"bufferView":8,
			"componentType":5126,
			"count":1454,
			"max":[
				2.608461380004883,
				0.5275934338569641,
				-1.7210257053375244
			],
			"min":[
				-2.608461380004883,
				-0.6229473948478699,
				-8.335114479064941
			],
			"type":"VEC3"
		},
		{
			"bufferView":9,
			"componentType":5126,
			"count":1454,
			"type":"VEC3"
		},
		{
			"bufferView":10,
			"componentType":5126,
			"count":1454,
			"type":"VEC2"
		},
		{
			"bufferView":11,
			"componentType":5123,
			"count":6894,
			"type":"SCALAR"
		},
		{
			"bufferView":12,
			"componentType":5126,
			"count":29116,
			"max":[
				2.5761208534240723,
				1.0335016250610352,
				0.014078720472753048
			],
			"min":[
				-2.5761208534240723,
				-3.0103862285614014,
				-10
			],
			"type":"VEC3"
		},
		{
			"bufferView":13,
			"componentType":5126,
			"count":29116,
			"type":"VEC3"
		},
		{
			"bufferView":14,
			"componentType":5126,
			"count":29116,
			"type":"VEC2"
		},
		{
			"bufferView":15,
			"componentType":5123,
			"count":135975,
			"type":"SCALAR"
		}
	],
	"bufferViews":[
		{
			"buffer":0,
			"byteLength":117084,
			"byteOffset":0,
			"target":34962
		},
		{
			"buffer":0,
			"byteLength":117084,
			"byteOffset":117084,
			"target":34962
		},
		{
			"buffer":0,
			"byteLength":78056,
			"byteOffset":234168,
			"target":34962
		},
		{
			"buffer":0,
			"byteLength":66630,
			"byteOffset":312224,
			"target":34963
		},
		{
			"buffer":0,
			"byteLength":10260,
			"byteOffset":378856,
			"target":34962
		},
		{
			"buffer":0,
			"byteLength":10260,
			"byteOffset":389116,
			"target":34962
		},
		{
			"buffer":0,
			"byteLength":6840,
			"byteOffset":399376,
			"target":34962
		},
		{
			"buffer":0,
			"byteLength":8604,
			"byteOffset":406216,
			"target":34963
		},
		{
			"buffer":0,
			"byteLength":17448,
			"byteOffset":414820,
			"target":34962
		},
		{
			"buffer":0,
			"byteLength":17448,
			"byteOffset":432268,
			"target":34962
		},
		{
			"buffer":0,
			"byteLength":11632,
			"byteOffset":449716,
			"target":34962
		},
		{
			"buffer":0,
			"byteLength":13788,
			"byteOffset":461348,
			"target":34963
		},
		{
			"buffer":0,
			"byteLength":349392,
			"byteOffset":475136,
			"target":34962
		},
		{
			"buffer":0,
			"byteLength":349392,
			"byteOffset":824528,
			"target":34962
		},
		{
			"buffer":0,
			"byteLength":232928,
			"byteOffset":1173920,
			"target":34962
		},
		{
			"buffer":0,
			"byteLength":271950,
			"byteOffset":1406848,
			"target":34963
		}
	],
	"samplers":[
		{
			"magFilter":9729,
			"minFilter":9987
		}
	],
	"buffers":[
		{
			"byteLength":1678800,
			"uri":"JINYUJI.bin"
		}
	]
}
